<svg width="24" height="26" viewBox="0 0 24 26" fill="none" xmlns="http://www.w3.org/2000/svg">
<g filter="url(#filter0_d_1_277)">
<path fill-rule="evenodd" clip-rule="evenodd" d="M18.6085 15.9908C19.0014 15.598 19.3078 15.1274 19.5082 14.6092C19.701 14.1131 19.8329 13.5461 19.8708 12.7158C19.9087 11.8839 19.9177 11.6183 19.9177 9.49996C19.9177 7.38163 19.9087 7.11589 19.8708 6.28405C19.8329 5.4538 19.701 4.88683 19.5082 4.39069C19.3123 3.87024 19.0054 3.39876 18.6085 3.00915C18.2189 2.61229 17.7474 2.3052 17.227 2.10931C16.7308 1.91662 16.1638 1.78479 15.3335 1.74704C14.5017 1.70893 14.2361 1.69995 12.1177 1.69995C9.99934 1.69995 9.73362 1.70893 8.90179 1.7469C8.07154 1.78479 7.50456 1.91662 7.00842 2.10945C6.48797 2.30532 6.0165 2.61234 5.62689 3.00913C5.23001 3.39871 4.92291 3.87018 4.72698 4.39065C4.5343 4.88683 4.40247 5.4538 4.36471 6.28405C4.3266 7.11589 4.31763 7.3816 4.31763 9.49996C4.31763 11.6183 4.3266 11.8841 4.36471 12.7158C4.40262 13.5461 4.53445 14.1131 4.72728 14.6092C4.92315 15.1298 5.23017 15.6011 5.62696 15.9908C6.01656 16.3876 6.48803 16.6946 7.00848 16.8904C7.50466 17.0832 8.07164 17.2151 8.90185 17.253C9.7338 17.291 9.99942 17.3 12.1178 17.3C14.2361 17.3 14.5018 17.291 15.3336 17.253C16.1639 17.2151 16.7309 17.0832 17.227 16.8904C17.7451 16.69 18.2158 16.3836 18.6085 15.9908ZM5.51701 8.5819C5.51732 8.83424 5.51769 9.13447 5.51769 9.49998C5.51769 9.86548 5.51732 10.1657 5.51701 10.418C5.51582 11.4031 5.51551 11.6582 5.54118 12.2186C5.57313 12.921 5.6115 13.4373 5.72868 13.8263C5.84134 14.2004 5.96769 14.581 6.38019 15.0405C6.79269 15.4998 7.19056 15.7079 7.69737 15.8608C8.20418 16.0136 8.84115 16.0464 9.39425 16.0716C10.0216 16.1003 10.2703 16.1002 11.5862 16.0998H12.1177C12.4693 16.0998 12.7605 16.1001 13.0067 16.1004C14.016 16.1015 14.2707 16.1018 14.8365 16.0758C15.5391 16.0439 16.0553 16.0055 16.4443 15.8884C16.8184 15.7757 17.199 15.6494 17.6584 15.2368C18.1177 14.8244 18.3258 14.4264 18.4787 13.9197C18.6316 13.4128 18.6645 12.7758 18.6897 12.2228C18.7182 11.5962 18.7181 11.3483 18.7179 10.0369V10.0368L18.7177 9.50042V8.96892C18.7181 7.65297 18.7182 7.40433 18.6895 6.77697C18.6643 6.22387 18.6315 5.5869 18.4787 5.08009C18.3258 4.57329 18.1177 4.17541 17.6584 3.76291C17.199 3.35041 16.8183 3.22406 16.4443 3.1114C16.0552 2.99422 15.5389 2.95585 14.8365 2.9239C14.2707 2.89798 14.016 2.89826 13.0067 2.89936C12.7605 2.89964 12.4693 2.89996 12.1177 2.89996L11.5861 2.89987C10.2702 2.89952 10.0216 2.89945 9.39425 2.92807C8.84115 2.9533 8.20418 2.98615 7.69737 3.139C7.19056 3.29186 6.79269 3.49994 6.38019 3.95932C5.96769 4.4187 5.84134 4.79938 5.72868 5.17339C5.6115 5.56244 5.57313 6.07868 5.54118 6.7812C5.51551 7.34152 5.51582 7.59676 5.51701 8.5819ZM12.1176 6.80013C10.6265 6.80013 9.41777 8.00888 9.41777 9.49994C9.41777 10.991 10.6265 12.1997 12.1176 12.1997C13.6086 12.1997 14.8174 10.991 14.8174 9.49994C14.8174 8.00888 13.6086 6.80013 12.1176 6.80013ZM8.21777 9.49994C8.21777 7.34613 9.96377 5.60013 12.1176 5.60013C14.2714 5.60013 16.0174 7.34613 16.0174 9.49994C16.0174 11.6537 14.2714 13.3997 12.1176 13.3997C9.96377 13.3997 8.21777 11.6537 8.21777 9.49994ZM16.2813 6.23631C16.7783 6.23631 17.1813 5.83338 17.1813 5.33631C17.1813 4.83926 16.7783 4.43631 16.2813 4.43631C15.7842 4.43631 15.3813 4.83926 15.3813 5.33631C15.3813 5.83338 15.7842 6.23631 16.2813 6.23631Z" fill="white"/>
</g>
<defs>
<filter id="filter0_d_1_277" x="-0.882324" y="0.5" width="26" height="26" filterUnits="userSpaceOnUse" color-interpolation-filters="sRGB">
<feFlood flood-opacity="0" result="BackgroundImageFix"/>
<feColorMatrix in="SourceAlpha" type="matrix" values="0 0 0 0 0 0 0 0 0 0 0 0 0 0 0 0 0 0 127 0" result="hardAlpha"/>
<feOffset dy="4"/>
<feGaussianBlur stdDeviation="2"/>
<feComposite in2="hardAlpha" operator="out"/>
<feColorMatrix type="matrix" values="0 0 0 0 0 0 0 0 0 0 0 0 0 0 0 0 0 0 0.25 0"/>
<feBlend mode="normal" in2="BackgroundImageFix" result="effect1_dropShadow_1_277"/>
<feBlend mode="normal" in="SourceGraphic" in2="effect1_dropShadow_1_277" result="shape"/>
</filter>
</defs>
</svg>
